<svg id="Layer_1" enable-background="new 0 0 256 256" height="512" viewBox="0 0 256 256" width="512" xmlns="http://www.w3.org/2000/svg"><path d="m233.597 43.01c-22.739-22.739-58.561-24.39-83.219-4.986l-17.213 51.119h29.607l-55.084 112.857 9.295-72.857h-23.754l20.355-83.813-2.32-2.32c-24.538-24.538-64.322-24.538-88.859 0-24.538 24.538-24.538 64.322 0 88.859l95.231 95.231c5.725 5.725 15.007 5.725 20.732 0l95.231-95.231c24.535-24.538 24.535-64.321-.002-88.859z" fill="#ff4397"/><path d="m233.597 43.01c-13.556-13.556-31.76-19.612-49.478-18.186 14.391 1.126 28.468 7.176 39.477 18.186 24.538 24.538 26.403 59.99 0 88.859l-95.23 99.231c-.104.104-.217.192-.323.292 3.737-.011 7.471-1.44 10.323-4.292l95.231-95.231c24.537-24.538 24.537-64.321 0-88.859z" fill="#e12579"/><path d="m22.403 43.01c13.556-13.556 31.76-19.612 49.478-18.186-14.391 1.126-28.468 7.176-39.477 18.186-24.539 24.538-26.404 59.99-.001 88.859l95.231 99.231c.104.104.217.192.323.292-3.737-.011-7.471-1.44-10.323-4.292l-95.231-95.231c-24.538-24.538-24.538-64.321 0-88.859z" fill="#ff61b5"/><g fill="#690589"><path d="m128 233.385c-4.267 0-8.532-1.624-11.78-4.871l-95.23-95.231c-12.246-12.245-18.99-28.526-18.99-45.844 0-17.317 6.744-33.599 18.989-45.844s28.527-18.989 45.844-18.989c17.318 0 33.599 6.744 45.844 18.989l2.32 2.32c.493.493.694 1.208.529 1.886l-19.754 81.34h21.211c.574 0 1.121.247 1.501.678s.556 1.005.483 1.575l-7.762 60.838 48.364-99.091h-26.406c-.644 0-1.248-.31-1.624-.833s-.477-1.195-.271-1.805l17.213-51.118c.124-.369.354-.693.658-.934 25.756-20.266 62.672-18.057 85.871 5.143 12.246 12.247 18.99 28.528 18.99 45.845 0 17.318-6.744 33.599-18.989 45.844l-95.23 95.231c-3.249 3.248-7.514 4.871-11.781 4.871zm-61.167-206.779c-16.249 0-31.525 6.328-43.016 17.817-11.49 11.491-17.817 26.767-17.817 43.016 0 16.25 6.327 31.526 17.817 43.016l95.23 95.231c4.937 4.936 12.968 4.936 17.904 0l95.23-95.23c11.492-11.491 17.819-26.767 17.819-43.017 0-16.249-6.327-31.525-17.817-43.016-21.629-21.628-55.96-23.816-80.103-5.191l-16.132 47.91h26.823c.689 0 1.331.355 1.696.94s.403 1.317.101 1.937l-55.083 112.857c-.429.88-1.432 1.32-2.37 1.039-.938-.28-1.534-1.198-1.411-2.169l9.008-70.604h-21.483c-.613 0-1.193-.282-1.572-.764s-.516-1.112-.371-1.708l20.089-82.721-1.525-1.526c-11.491-11.489-26.767-17.817-43.017-17.817z"/><path d="m36.104 136.084c-.512 0-1.023-.195-1.414-.586l-8.699-8.7c-.781-.781-.781-2.047 0-2.828s2.047-.781 2.828 0l8.699 8.7c.781.781.781 2.047 0 2.828-.39.391-.902.586-1.414.586z"/></g></svg>